<svg xmlns="http://www.w3.org/2000/svg" width="64" height="64" viewBox="0 0 64 64"><defs><style>.a{fill:#c9ff05;}.b,.c,.e{fill:#ba8d66;}.b,.c,.d{stroke:#000;}.c{stroke-linecap:round;}.d{fill:#fff;}.e{stroke:#ba8d66;}.f{stroke:none;}.g{fill:none;}</style></defs><g transform="translate(198 81)"><circle class="a" cx="32" cy="32" r="32" transform="translate(-198 -81)"/><g transform="translate(-34.307 -35)"><g class="b" transform="translate(-149.628 -29.179)"><rect class="f" width="35.246" height="38" rx="17.623"/><rect class="g" x="0.5" y="0.5" width="34.246" height="37" rx="17.123"/></g><g class="b" transform="translate(-149.628 -30.206)"><rect class="f" width="8.348" height="19.513" rx="4.174"/><rect class="g" x="0.5" y="0.5" width="7.348" height="18.513" rx="3.674"/></g><g class="b" transform="translate(-142.208 -35.341)"><rect class="f" width="7.42" height="22.594" rx="3.71"/><rect class="g" x="0.5" y="0.5" width="6.42" height="21.594" rx="3.21"/></g><g class="b" transform="translate(-135.715 -36.368)"><rect class="f" width="8.348" height="23.621" rx="4.174"/><rect class="g" x="0.5" y="0.5" width="7.348" height="22.621" rx="3.674"/></g><g class="b" transform="translate(-129.222 -32.26)"><rect class="f" width="8.348" height="19.513" rx="4.174"/><rect class="g" x="0.5" y="0.5" width="7.348" height="18.513" rx="3.674"/></g><path class="c" d="M.133,9.314.583,7.369l.782-1.862L2.514,3.834l1.351-1.3,1.223-.8,1.591-.685L8.285.619,10,.156" transform="translate(-130.988 -13.475) rotate(9)"/><g class="d" transform="translate(-121.977 -25.071)"><rect class="f" width="7.594" height="16.432" rx="3.797"/><rect class="g" x="0.5" y="0.5" width="6.594" height="15.432" rx="3.297"/></g><g class="b" transform="translate(-131.694 -16.616) rotate(-90)"><rect class="f" width="9.272" height="16.779" rx="4.636"/><rect class="g" x="0.5" y="0.5" width="8.272" height="15.779" rx="4.136"/></g><g class="e" transform="translate(-120.962 -24.044)"><rect class="f" width="5.565" height="18.561" rx="2.783"/><rect class="g" x="0.5" y="0.5" width="4.565" height="17.561" rx="2.283"/></g></g></g></svg>