<svg xmlns="http://www.w3.org/2000/svg" width="577.543" height="404.326" viewBox="0 0 577.543 404.326"><g transform="translate(156.455 -962.1)"><g transform="matrix(0.998, -0.07, 0.07, 0.998, -80.881, 12.069)"><path d="M142,0c78.424,0,142,41.19,142,92s-63.576,92-142,92S0,142.81,0,92,63.576,0,142,0Z" transform="translate(-151 1076)"/><path d="M142,0c78.424,0,142,41.19,142,92s-63.576,92-142,92S0,142.81,0,92,63.576,0,142,0Z" transform="translate(-81 984)"/><path d="M142,0c78.424,0,142,41.19,142,92s-63.576,92-142,92S0,142.81,0,92,63.576,0,142,0Z" transform="translate(-81 1168)"/><path d="M142,0c78.424,0,142,41.19,142,92s-63.576,92-142,92S0,142.81,0,92,63.576,0,142,0Z" transform="translate(415.722 1250.926) rotate(179)"/><path d="M142,0c78.424,0,142,41.19,142,92s-63.576,92-142,92S0,142.81,0,92,63.576,0,142,0Z" transform="translate(347.338 1344.134) rotate(179)"/><path d="M142,0c78.424,0,142,41.19,142,92s-63.576,92-142,92S0,142.81,0,92,63.576,0,142,0Z" transform="translate(344.127 1160.162) rotate(179)"/></g></g></svg>