<svg xmlns="http://www.w3.org/2000/svg" width="694.202" height="519.027" viewBox="0 0 694.202 519.027"><defs><style>.a{fill:#796be8;}</style></defs><g transform="translate(237.653 -1692.824)"><g transform="translate(-1 -5)"><g transform="translate(397.285 -97.181) rotate(11)"><path class="a" d="M168.563-.938c93.095-.518,168.291,51.827,167.955,116.916S260.442,234.252,167.348,234.77-.943,182.943-.607,117.854,75.468-.42,168.563-.938Z" transform="matrix(0.998, -0.07, 0.07, 0.998, -230.455, 1983.666)"/><path class="a" d="M168.563-.938c93.095-.518,168.291,51.827,167.955,116.916S260.442,234.252,167.348,234.77-.943,182.943-.607,117.854,75.468-.42,168.563-.938Z" transform="matrix(0.998, -0.07, 0.07, 0.998, -155.21, 1859.799)"/><path class="a" d="M168.563-.938c93.095-.518,168.291,51.827,167.955,116.916S260.442,234.252,167.348,234.77-.943,182.943-.607,117.854,75.468-.42,168.563-.938Z" transform="matrix(0.998, -0.07, 0.07, 0.998, -139.98, 2095.018)"/><path class="a" d="M168.6-1.17c93.115-.646,168.26,51.584,167.842,116.66s-76.242,118.354-169.357,119S-1.176,182.906-.758,117.83,75.485-.524,168.6-1.17Z" transform="translate(454.857 2156.624) rotate(175)"/><path class="a" d="M168.6-1.17c93.115-.646,168.26,51.584,167.842,116.66s-76.242,118.354-169.357,119S-1.176,182.906-.758,117.83,75.485-.524,168.6-1.17Z" transform="translate(381.626 2281.89) rotate(175)"/><path class="a" d="M168.6-1.17c93.115-.646,168.26,51.584,167.842,116.66s-76.242,118.354-169.357,119S-1.176,182.906-.758,117.83,75.485-.524,168.6-1.17Z" transform="translate(362.597 2046.995) rotate(175)"/></g></g></g></svg>