<svg xmlns="http://www.w3.org/2000/svg" width="200" height="200" viewBox="0 0 200 200"><defs><style>.a{fill:#9ebde2;}.b,.d{fill:#ffb9bc;}.b,.c{stroke:#000;}.b,.c,.d{stroke-width:2px;}.c,.g{fill:none;}.c{stroke-linecap:round;}.d{stroke:#ffb9bc;}.e,.f{stroke:none;}</style></defs><g transform="translate(48 -409)"><g class="a" transform="translate(-48 409)"><path class="e" d="M 100 197.5 C 93.38311004638672 197.5 86.77114105224609 196.8335266113281 80.34769439697266 195.5191040039062 C 74.08880615234375 194.2383575439453 67.93235778808594 192.3272705078125 62.04936218261719 189.8390045166016 C 56.27264022827148 187.3956451416016 50.70077896118164 184.3713073730469 45.48855590820312 180.8500061035156 C 40.32524871826172 177.3617248535156 35.46977615356445 173.3556060791016 31.05708312988281 168.9429168701172 C 26.64438819885254 164.5302276611328 22.63827705383301 159.6747436523438 19.14999961853027 154.5114440917969 C 15.62869453430176 149.2992248535156 12.60436153411865 143.7273559570312 10.16100025177002 137.9506378173828 C 7.672722339630127 132.0676422119141 5.76163911819458 125.9111938476562 4.480888843536377 119.6523056030273 C 3.166472196578979 113.2288589477539 2.5 106.6168899536133 2.5 100 C 2.5 93.38311004638672 3.166472196578979 86.77114105224609 4.480888843536377 80.34769439697266 C 5.76163911819458 74.08880615234375 7.672722339630127 67.93235778808594 10.16100025177002 62.04936218261719 C 12.60436153411865 56.27264022827148 15.62869453430176 50.70077896118164 19.14999961853027 45.48855590820312 C 22.63827705383301 40.32524871826172 26.64438819885254 35.46977615356445 31.05708312988281 31.05708312988281 C 35.46977615356445 26.64438819885254 40.32524871826172 22.63827705383301 45.48855590820312 19.14999961853027 C 50.70077896118164 15.62869453430176 56.27264022827148 12.60436153411865 62.04936218261719 10.16100025177002 C 67.93235778808594 7.672722339630127 74.08880615234375 5.76163911819458 80.34769439697266 4.480888843536377 C 86.77114105224609 3.166472196578979 93.38311004638672 2.5 100 2.5 C 106.6168899536133 2.5 113.2288589477539 3.166472196578979 119.6523056030273 4.480888843536377 C 125.9111938476562 5.76163911819458 132.0676422119141 7.672722339630127 137.9506378173828 10.16100025177002 C 143.7273559570312 12.60436153411865 149.2992248535156 15.62869453430176 154.5114440917969 19.14999961853027 C 159.6747436523438 22.63827705383301 164.5302276611328 26.64438819885254 168.9429168701172 31.05708312988281 C 173.3556060791016 35.46977615356445 177.3617248535156 40.32524871826172 180.8500061035156 45.48855590820312 C 184.3713073730469 50.70077896118164 187.3956451416016 56.27264022827148 189.8390045166016 62.04936218261719 C 192.3272705078125 67.93235778808594 194.2383575439453 74.08880615234375 195.5191040039062 80.34769439697266 C 196.8335266113281 86.77114105224609 197.5 93.38311004638672 197.5 100 C 197.5 106.6168899536133 196.8335266113281 113.2288589477539 195.5191040039062 119.6523056030273 C 194.2383575439453 125.9111938476562 192.3272705078125 132.0676422119141 189.8390045166016 137.9506378173828 C 187.3956451416016 143.7273559570312 184.3713073730469 149.2992248535156 180.8500061035156 154.5114440917969 C 177.3617248535156 159.6747436523438 173.3556060791016 164.5302276611328 168.9429168701172 168.9429168701172 C 164.5302276611328 173.3556060791016 159.6747436523438 177.3617248535156 154.5114440917969 180.8500061035156 C 149.2992248535156 184.3713073730469 143.7273559570312 187.3956451416016 137.9506378173828 189.8390045166016 C 132.0676422119141 192.3272705078125 125.9111938476562 194.2383575439453 119.6523056030273 195.5191040039062 C 113.2288589477539 196.8335266113281 106.6168899536133 197.5 100 197.5 Z"/><path class="f" d="M 100 5 C 93.55111694335938 5 87.10773468017578 5.649383544921875 80.84888458251953 6.930145263671875 C 74.75164794921875 8.177825927734375 68.75424194335938 10.03950500488281 63.02323913574219 12.46353149414062 C 57.39517211914062 14.843994140625 51.96652221679688 17.79061889648438 46.88809204101562 21.2215576171875 C 41.85658264160156 24.62075805664062 37.12506103515625 28.52467346191406 32.82485961914062 32.82485961914062 C 28.52467346191406 37.12506103515625 24.62075805664062 41.85658264160156 21.2215576171875 46.88809204101562 C 17.79061889648438 51.96652221679688 14.843994140625 57.39517211914062 12.46353149414062 63.02323913574219 C 10.03950500488281 68.75424194335938 8.177825927734375 74.75164794921875 6.930145263671875 80.84888458251953 C 5.649383544921875 87.10773468017578 5 93.55111694335938 5 100 C 5 106.4488830566406 5.649383544921875 112.8922653198242 6.930145263671875 119.1511154174805 C 8.177825927734375 125.2483520507812 10.03950500488281 131.2457580566406 12.46353149414062 136.9767608642578 C 14.843994140625 142.6048278808594 17.79061889648438 148.0334777832031 21.2215576171875 153.1119079589844 C 24.62075805664062 158.1434173583984 28.52467346191406 162.8749389648438 32.82485961914062 167.1751403808594 C 37.12506103515625 171.4753265380859 41.85658264160156 175.3792419433594 46.88809204101562 178.7784423828125 C 51.96652221679688 182.2093811035156 57.39517211914062 185.156005859375 63.02323913574219 187.5364685058594 C 68.75424194335938 189.9604949951172 74.75164794921875 191.8221740722656 80.84888458251953 193.0698547363281 C 87.10773468017578 194.3506164550781 93.55111694335938 195 100 195 C 106.4488830566406 195 112.8922653198242 194.3506164550781 119.1511154174805 193.0698547363281 C 125.2483520507812 191.8221740722656 131.2457580566406 189.9604949951172 136.9767608642578 187.5364685058594 C 142.6048278808594 185.156005859375 148.0334777832031 182.2093811035156 153.1119079589844 178.7784423828125 C 158.1434173583984 175.3792419433594 162.8749389648438 171.4753265380859 167.1751403808594 167.1751403808594 C 171.4753265380859 162.8749389648438 175.3792419433594 158.1434173583984 178.7784423828125 153.1119079589844 C 182.2093811035156 148.0334777832031 185.156005859375 142.6048278808594 187.5364685058594 136.9767608642578 C 189.9604949951172 131.2457580566406 191.8221740722656 125.2483520507812 193.0698547363281 119.1511154174805 C 194.3506164550781 112.8922653198242 195 106.4488830566406 195 100 C 195 93.55111694335938 194.3506164550781 87.10773468017578 193.0698547363281 80.84888458251953 C 191.8221740722656 74.75164794921875 189.9604949951172 68.75424194335938 187.5364685058594 63.02323913574219 C 185.156005859375 57.39517211914062 182.2093811035156 51.96652221679688 178.7784423828125 46.88809204101562 C 175.3792419433594 41.85658264160156 171.4753265380859 37.12506103515625 167.1751403808594 32.82485961914062 C 162.8749389648438 28.52467346191406 158.1434173583984 24.62075805664062 153.1119079589844 21.2215576171875 C 148.0334777832031 17.79061889648438 142.6048278808594 14.843994140625 136.9767608642578 12.46353149414062 C 131.2457580566406 10.03950500488281 125.2483520507812 8.177825927734375 119.1511154174805 6.930145263671875 C 112.8922653198242 5.649383544921875 106.4488830566406 5 100 5 M 100 0 C 155.2284698486328 0 200 44.77153015136719 200 100 C 200 155.2284698486328 155.2284698486328 200 100 200 C 44.77153015136719 200 0 155.2284698486328 0 100 C 0 44.77153015136719 44.77153015136719 0 100 0 Z"/></g><g class="b" transform="translate(24 483)"><rect class="e" width="56" height="61" rx="28"/><rect class="g" x="1" y="1" width="54" height="59" rx="27"/></g><g class="b" transform="translate(24 475)"><rect class="e" width="13" height="36" rx="6"/><rect class="g" x="1" y="1" width="11" height="34" rx="5"/></g><g class="b" transform="translate(35 462)"><rect class="e" width="13" height="49" rx="6"/><rect class="g" x="1" y="1" width="11" height="47" rx="5"/></g><g class="b" transform="translate(46 459)"><rect class="e" width="13" height="52" rx="6"/><rect class="g" x="1" y="1" width="11" height="50" rx="5"/></g><g class="b" transform="translate(57 467)"><rect class="e" width="12" height="44" rx="6"/><rect class="g" x="1" y="1" width="10" height="42" rx="5"/></g><path class="c" d="M0,14l.754-2.947L2.039,8.226,3.91,5.677,6.1,3.7,8.077,2.465,10.643,1.4,13.233.726,16,0" transform="translate(53.694 510.335) rotate(9)"/><g class="b" transform="translate(67 486)"><rect class="e" width="13" height="32" rx="6"/><rect class="g" x="1" y="1" width="11" height="30" rx="5"/></g><g class="d" transform="translate(26 505)"><rect class="e" width="41" height="7"/><rect class="g" x="1" y="1" width="39" height="5"/></g><g class="d" transform="translate(69 495)"><rect class="e" width="9" height="26" rx="4"/><rect class="g" x="1" y="1" width="7" height="24" rx="3"/></g></g></svg>