<svg xmlns="http://www.w3.org/2000/svg" width="200" height="200" viewBox="0 0 200 200"><defs><style>.a{fill:#f84772;}.b,.c,.e{fill:#ba8d66;}.b,.c,.d{stroke:#000;stroke-width:2px;}.c{stroke-linecap:round;}.d{fill:#fff;}.e{stroke:#ba8d66;}.f{stroke:none;}.g{fill:none;}</style></defs><g transform="translate(-237 -125)"><circle class="a" cx="100" cy="100" r="100" transform="translate(237 125)"/><g class="b" transform="translate(309 202)"><rect class="f" width="56" height="58" rx="28"/><rect class="g" x="1" y="1" width="54" height="56" rx="27"/></g><g class="b" transform="translate(309 201)"><rect class="f" width="13" height="29" rx="6"/><rect class="g" x="1" y="1" width="11" height="27" rx="5"/></g><g class="b" transform="translate(320 193)"><rect class="f" width="13" height="35" rx="6"/><rect class="g" x="1" y="1" width="11" height="33" rx="5"/></g><g class="b" transform="translate(331 192)"><rect class="f" width="13" height="36" rx="6"/><rect class="g" x="1" y="1" width="11" height="34" rx="5"/></g><g class="b" transform="translate(342 198)"><rect class="f" width="13" height="30" rx="6"/><rect class="g" x="1" y="1" width="11" height="28" rx="5"/></g><path class="c" d="M0,14l.754-2.947L2.039,8.226,3.91,5.677,6.1,3.7,8.077,2.465,10.643,1.4,13.233.726,16,0" transform="translate(338.694 226.335) rotate(9)"/><g class="d" transform="translate(351 208)"><rect class="f" width="14" height="26" rx="6"/><rect class="g" x="1" y="1" width="12" height="24" rx="5"/></g><g class="b" transform="translate(337.5 221.5) rotate(-90)"><rect class="f" width="14" height="27" rx="6"/><rect class="g" x="1" y="1" width="12" height="25" rx="5"/></g><g class="e" transform="translate(353 210)"><rect class="f" width="10" height="26" rx="4"/><rect class="g" x="0.5" y="0.5" width="9" height="25" rx="3.5"/></g></g></svg>