<svg xmlns="http://www.w3.org/2000/svg" width="200" height="200" viewBox="0 0 200 200"><defs><style>.a{fill:#f84772;}.b,.d{fill:#ffb9bc;}.b,.c{stroke:#000;}.b,.c,.d{stroke-width:2px;}.c,.f{fill:none;}.c{stroke-linecap:round;}.d{stroke:#ffb9bc;}.e{stroke:none;}</style></defs><g transform="translate(48 -409)"><path class="a" d="M100,0A100,100,0,1,1,0,100,100,100,0,0,1,100,0Z" transform="translate(-48 409)"/><g class="b" transform="translate(24 483)"><rect class="e" width="56" height="61" rx="28"/><rect class="f" x="1" y="1" width="54" height="59" rx="27"/></g><g class="b" transform="translate(24 475)"><rect class="e" width="13" height="36" rx="6"/><rect class="f" x="1" y="1" width="11" height="34" rx="5"/></g><g class="b" transform="translate(35 462)"><rect class="e" width="13" height="49" rx="6"/><rect class="f" x="1" y="1" width="11" height="47" rx="5"/></g><g class="b" transform="translate(46 459)"><rect class="e" width="13" height="52" rx="6"/><rect class="f" x="1" y="1" width="11" height="50" rx="5"/></g><g class="b" transform="translate(57 467)"><rect class="e" width="12" height="44" rx="6"/><rect class="f" x="1" y="1" width="10" height="42" rx="5"/></g><path class="c" d="M0,14l.754-2.947L2.039,8.226,3.91,5.677,6.1,3.7,8.077,2.465,10.643,1.4,13.233.726,16,0" transform="translate(53.694 510.335) rotate(9)"/><g class="b" transform="translate(67 486)"><rect class="e" width="13" height="32" rx="6"/><rect class="f" x="1" y="1" width="11" height="30" rx="5"/></g><g class="d" transform="translate(26 505)"><rect class="e" width="41" height="7"/><rect class="f" x="1" y="1" width="39" height="5"/></g><g class="d" transform="translate(69 495)"><rect class="e" width="9" height="26" rx="4"/><rect class="f" x="1" y="1" width="7" height="24" rx="3"/></g></g></svg>