<svg xmlns="http://www.w3.org/2000/svg" width="411.318" height="255.714" viewBox="0 0 411.318 255.714"><defs><style>.a{fill:#00d3d1;}</style></defs><g transform="translate(133.207 -2485.75)"><g transform="matrix(0.966, 0.259, -0.259, 0.966, 596.451, 761.803)"><path class="a" d="M99.794.633c55.465.836,100.867,24.4,101.409,52.621s-43.982,50.429-99.447,49.592S.889,78.45.347,50.225,44.329-.2,99.794.633Z" transform="matrix(0.998, -0.07, 0.07, 0.998, -229.744, 1887.227)"/><path class="a" d="M99.794.633c55.465.836,100.867,24.4,101.409,52.621s-43.982,50.429-99.447,49.592S.889,78.45.347,50.225,44.329-.2,99.794.633Z" transform="matrix(0.998, -0.07, 0.07, 0.998, -184.849, 1833.604)"/><path class="a" d="M99.794.633c55.465.836,100.867,24.4,101.409,52.621s-43.982,50.429-99.447,49.592S.889,78.45.347,50.225,44.329-.2,99.794.633Z" transform="matrix(0.998, -0.07, 0.07, 0.998, -175.762, 1935.432)"/><path class="a" d="M99.577.79C155.009,1.834,200.494,25.578,201.17,53.824s-43.713,50.3-99.145,49.256S1.108,78.293.432,50.046,44.145-.253,99.577.79Z" transform="translate(177.57 1960.24) rotate(175)"/><path class="a" d="M99.577.79C155.009,1.834,200.494,25.578,201.17,53.824s-43.713,50.3-99.145,49.256S1.108,78.293.432,50.046,44.145-.253,99.577.79Z" transform="translate(133.877 2014.469) rotate(175)"/><path class="a" d="M99.577.79C155.009,1.834,200.494,25.578,201.17,53.824s-43.713,50.3-99.145,49.256S1.108,78.293.432,50.046,44.145-.253,99.577.79Z" transform="translate(122.523 1912.781) rotate(175)"/></g></g></svg>