<svg xmlns="http://www.w3.org/2000/svg" width="200" height="200" viewBox="0 0 200 200"><defs><style>.a{fill:#c9ff05;}.b,.e,.f,.j{fill:#ffe1ce;}.b,.c,.d{stroke:#000;}.b,.c,.d,.e{stroke-width:2px;}.c,.i{fill:none;}.c{stroke-linecap:round;}.d{fill:#fff;}.e{stroke:#ffe1ce;}.g{font-size:20px;font-family:Phosphate-Inline, Phosphate;}.h,.j{stroke:none;}</style></defs><g transform="translate(-353 -408)"><circle class="a" cx="100" cy="100" r="100" transform="translate(353 408)"/><g class="b" transform="translate(425 485)"><rect class="h" width="56" height="58" rx="28"/><rect class="i" x="1" y="1" width="54" height="56" rx="27"/></g><g class="b" transform="translate(425 481)"><rect class="h" width="13" height="30" rx="6"/><rect class="i" x="1" y="1" width="11" height="28" rx="5"/></g><g class="b" transform="translate(436 475)"><rect class="h" width="13" height="36" rx="6"/><rect class="i" x="1" y="1" width="11" height="34" rx="5"/></g><g class="b" transform="translate(447 457)"><rect class="h" width="13" height="37" rx="6"/><rect class="i" x="1" y="1" width="11" height="35" rx="5"/></g><g class="b" transform="translate(466.572 459.237) rotate(16)"><rect class="h" width="13" height="37" rx="6"/><rect class="i" x="1" y="1" width="11" height="35" rx="5"/></g><path class="c" d="M0,14l.754-2.947L2.039,8.226,3.91,5.677,6.1,3.7,8.077,2.465,10.643,1.4,13.233.726,16,0" transform="translate(454.694 509.335) rotate(9)"/><g class="d" transform="translate(468 491)"><rect class="h" width="13" height="26" rx="6"/><rect class="i" x="1" y="1" width="11" height="24" rx="5"/></g><g class="b" transform="translate(453.5 504.5) rotate(-90)"><rect class="h" width="14" height="27" rx="6"/><rect class="i" x="1" y="1" width="12" height="25" rx="5"/></g><g class="e" transform="translate(470 493)"><rect class="h" width="9" height="26" rx="4"/><rect class="i" x="1" y="1" width="7" height="24" rx="3"/></g><g class="e" transform="translate(449 487)"><rect class="h" width="4" height="8" rx="2"/><rect class="i" x="1" y="1" width="2" height="6" rx="1"/></g><g class="f" transform="translate(451 476)"><path class="h" d="M 1.756705522537231 18.33183288574219 C 1.634302258491516 17.99273681640625 1.488158226013184 17.48854637145996 1.340630054473877 16.74932861328125 C 1.119379997253418 15.64070796966553 1 14.5053882598877 1 13.99999809265137 L 1 2.999998331069946 C 1 1.89719831943512 1.897199988365173 0.9999982714653015 3 0.9999982714653015 C 4.102799892425537 0.9999982714653015 5 1.89719831943512 5 2.999998331069946 L 5 13.99999809265137 C 5 14.22418785095215 5 14.22418785095215 4.579130172729492 14.53578853607178 C 3.866080045700073 15.06371784210205 2.788510084152222 15.86153793334961 1.768380045890808 18.30406761169434 C 1.76446521282196 18.31344223022461 1.760567188262939 18.32271194458008 1.756705522537231 18.33183288574219 Z"/><path class="j" d="M 3 1.999998092651367 C 2.448600053787231 1.999998092651367 2 2.448598861694336 2 2.999998092651367 L 2 13.99999809265137 C 2 14.24127292633057 2.041953325271606 14.8129825592041 2.147197961807251 15.53875923156738 C 2.779795408248901 14.67408752441406 3.40856409072876 14.15820217132568 3.984090089797974 13.73209857940674 C 3.98928689956665 13.72825050354004 3.994598865509033 13.72431755065918 4 13.72031784057617 L 4 2.999998092651367 C 4 2.448598861694336 3.551399946212769 1.999998092651367 3 1.999998092651367 M 3 -1.9073486328125e-06 C 4.65684986114502 -1.9073486328125e-06 6 1.343149185180664 6 2.999998092651367 L 6 13.99999809265137 C 6 15.65685844421387 4.321439743041992 14.78594779968262 2.691129922866821 18.68944931030273 C 2.34206223487854 19.52523422241211 2.018910646438599 19.8642406463623 1.726880550384521 19.8642406463623 C 0.6549935340881348 19.8642406463623 0 15.30210590362549 0 13.99999809265137 L 0 2.999998092651367 C 0 1.343149185180664 1.34315013885498 -1.9073486328125e-06 3 -1.9073486328125e-06 Z"/></g><text class="g" transform="translate(412 563)"><tspan x="1.17" y="19">Scissors</tspan></text></g></svg>