<svg xmlns="http://www.w3.org/2000/svg" width="260.381" height="787.397" viewBox="0 0 260.381 787.397"><defs><style>.a{fill:#00d3d1;}.b{fill:#f84772;}.c{fill:#fff;}.d{font-size:35px;font-family:Phosphate-Inline, Phosphate;}</style></defs><g transform="translate(244.94 -2976.603)"><path class="a" d="M0,0H246.687l-77.73,123.4H75.393Z" transform="translate(-244 2976.603)"/><path class="a" d="M27.083,0h93.983l87.512,466H-46.01Z" transform="translate(-196 3099)"/><path class="b" d="M127.5,0,255.151,200,.063,199.854Z" transform="translate(13 3764) rotate(180)"/><path class="c" d="M-6.311,4.578,251,0V33L5.415,32.262Z" transform="translate(-217.915 3460.5) rotate(33)"/><path class="c" d="M-3.254,1.24,227.359,0V16.7L3.837,17.294Z" transform="translate(-232.792 3527.168) rotate(33)"/><path class="c" d="M-1.926.986,239.306,0V16.7L5.253,16.691h0Z" transform="translate(-229.811 3500.662) rotate(33)"/><text class="d" transform="matrix(0.848, 0.53, -0.53, 0.848, -208.444, 3420.338)"><tspan x="61.563" y="33">It’s a tie!</tspan></text></g></svg>