<svg xmlns="http://www.w3.org/2000/svg" width="1110.534" height="1067.671" viewBox="0 0 1110.534 1067.671"><defs><style>.a{fill:#fff;}.b{fill:#00d3d1;}.c{fill:#f84772;}.d{font-size:35px;font-family:Phosphate-Inline, Phosphate;}</style></defs><g transform="translate(1196.387 -3434.282)"><g transform="translate(-971.597 1665.255)"><g transform="translate(-275.041 1633.726)"><g transform="translate(155.219 0) rotate(11)"><path class="a" d="M268.041,10.668c147.47,4.784,269.911,118.917,273.481,254.924s-113.084,242.384-260.554,237.6S11.057,384.274,7.487,248.268,120.571,5.884,268.041,10.668Z" transform="matrix(0.998, -0.07, 0.07, 0.998, 16.533, 352.216)"/><path class="a" d="M268.041,10.668c147.47,4.784,269.911,118.917,273.481,254.924s-113.084,242.384-260.554,237.6S11.057,384.274,7.487,248.268,120.571,5.884,268.041,10.668Z" transform="matrix(0.998, -0.07, 0.07, 0.998, 124.512, 102.082)"/><path class="a" d="M268.041,10.668c147.47,4.784,269.911,118.917,273.481,254.924s-113.084,242.384-260.554,237.6S11.057,384.274,7.487,248.268,120.571,5.884,268.041,10.668Z" transform="matrix(0.998, -0.07, 0.07, 0.998, 171.764, 592.504)"/><path class="a" d="M267.992,9.184C415.3,12.874,537.039,126.206,539.9,262.317S425.664,505.775,278.355,502.084,9.309,385.062,6.447,248.951,120.683,5.493,267.992,9.184Z" transform="translate(1129.576 782.911) rotate(175)"/><path class="a" d="M267.992,9.184C415.3,12.874,537.039,126.206,539.9,262.317S425.664,505.775,278.355,502.084,9.309,385.062,6.447,248.951,120.683,5.493,267.992,9.184Z" transform="translate(1024.946 1036.15) rotate(175)"/><path class="a" d="M267.992,9.184C415.3,12.874,537.039,126.206,539.9,262.317S425.664,505.775,278.355,502.084,9.309,385.062,6.447,248.951,120.683,5.493,267.992,9.184Z" transform="translate(971.663 546.028) rotate(175)"/></g></g></g><g transform="translate(-540 614)"><path class="b" d="M0,0H246.687l-77.73,123.4H75.393Z" transform="translate(-244 2976.603)"/><path class="b" d="M27.083,0h93.983l87.512,466H-46.01Z" transform="translate(-196 3099)"/><path class="c" d="M127.5,0,255.151,200,.063,199.854Z" transform="translate(13 3764) rotate(180)"/><path class="a" d="M-6.311,4.578,251,0V33L5.415,32.262Z" transform="translate(-217.915 3460.5) rotate(33)"/><path class="a" d="M-3.254,1.24,227.359,0V16.7L3.837,17.294Z" transform="translate(-232.792 3527.168) rotate(33)"/><path class="a" d="M-1.926.986,239.306,0V16.7L5.253,16.691h0Z" transform="translate(-229.811 3500.662) rotate(33)"/><text class="d" transform="matrix(0.848, 0.53, -0.53, 0.848, -208.444, 3420.338)"><tspan x="61.563" y="33">It’s a tie!</tspan></text></g></g></svg>